<?xml version="1.0" standalone="no"?>
<!DOCTYPE svg PUBLIC "-//W3C//DTD SVG 20010904//EN"
 "http://www.w3.org/TR/2001/REC-SVG-20010904/DTD/svg10.dtd">
<svg version="1.0" xmlns="http://www.w3.org/2000/svg"
 width="512.000000pt" height="512.000000pt" viewBox="0 0 512.000000 512.000000"
 preserveAspectRatio="xMidYMid meet">
<metadata>
Created by potrace 1.14, written by Peter Selinger 2001-2017
</metadata>
<g transform="translate(0.000000,512.000000) scale(0.100000,-0.100000)"
fill="#000000" stroke="none">
<path d="M2418 5065 c-1 -1 -39 -6 -83 -9 -98 -8 -183 -21 -300 -47 -107 -23
-316 -87 -329 -100 -6 -5 -16 -9 -23 -9 -7 0 -37 -11 -68 -25 -30 -13 -59 -25
-63 -26 -13 -3 -217 -112 -244 -130 -14 -11 -30 -19 -36 -19 -9 0 -162 -98
-172 -110 -3 -3 -27 -23 -55 -44 -49 -37 -169 -141 -209 -182 -23 -23 -137
-147 -165 -179 -102 -116 -259 -362 -331 -520 -50 -107 -118 -281 -126 -320
-1 -5 -10 -37 -20 -70 -10 -33 -19 -64 -20 -70 -73 -334 -88 -629 -48 -930 17
-130 75 -371 111 -465 4 -8 7 -18 8 -22 2 -5 4 -10 5 -13 1 -3 3 -8 5 -12 2
-8 7 -20 33 -88 57 -143 255 -487 319 -553 8 -8 26 -30 41 -50 49 -67 188
-212 289 -304 72 -65 256 -199 303 -221 25 -11 47 -24 50 -28 8 -11 217 -120
300 -157 257 -113 595 -193 827 -196 35 -1 63 -3 63 -6 0 -9 298 3 385 15 22
3 56 8 75 10 19 3 46 7 60 10 14 3 41 8 60 11 56 9 247 63 324 90 39 15 77 26
84 27 6 0 12 4 12 9 0 4 6 8 13 8 18 0 50 14 192 86 400 201 754 529 988 917
160 263 270 561 322 872 4 22 9 49 11 60 17 102 27 483 13 560 -4 22 -10 65
-13 95 -12 104 -60 340 -76 370 -4 8 -8 17 -7 20 1 15 -60 185 -99 273 -97
219 -233 439 -372 602 -54 64 -212 223 -266 269 -26 22 -60 51 -75 64 -38 32
-230 166 -271 188 -19 10 -37 22 -40 25 -14 17 -310 152 -410 187 -115 41
-275 84 -360 97 -25 4 -54 9 -65 11 -11 3 -38 7 -60 10 -22 3 -53 7 -70 10
-34 6 -411 14 -417 9z"/>
</g>
</svg>
